<svg width="97" height="54" viewBox="0 0 97 54" fill="none" xmlns="http://www.w3.org/2000/svg">
  <defs>
    <linearGradient id="commonGradient" x1="0" y1="0" x2="97" y2="0" gradientUnits="userSpaceOnUse">
      <stop offset="0%" stop-color="#00FFD9" />
      <stop offset="100%" stop-color="#3CFFFF" />
    </linearGradient>
  </defs>
  <path d="M88.8797 7.9056C85.0035 4.13042 80.0653 1.55974 74.6895 0.518585C69.3137 -0.522567 63.7418 0.012568 58.6782 2.05633C53.6145 4.10009 49.2867 7.56069 46.2417 12.0006C43.1968 16.4405 41.5715 21.6603 41.5714 27C41.5714 29.67 40.7587 32.2801 39.2361 34.5002C37.7134 36.7203 35.5493 38.4506 33.0172 39.4724C30.4851 40.4941 27.6989 40.7615 25.0109 40.2406C22.3229 39.7197 19.8538 38.4339 17.9158 36.5459C15.9779 34.6579 14.6581 32.2525 14.1234 29.6337C13.5887 27.015 13.8632 24.3006 14.912 21.8338C15.9608 19.367 17.7369 17.2586 20.0157 15.7752C22.2945 14.2918 24.9736 13.5 27.7143 13.5V0C22.2329 0 16.8747 1.58352 12.3171 4.55032C7.75947 7.51712 4.20726 11.7339 2.10964 16.6675C0.0120082 21.6011 -0.536827 27.0299 0.532535 32.2674C1.6019 37.5049 4.24143 42.3159 8.11734 46.0919C11.9932 49.8679 16.9315 52.4394 22.3075 53.4812C27.6836 54.523 33.256 53.9883 38.3201 51.9447C43.3842 49.9012 47.7126 46.4405 50.7579 42.0004C53.8032 37.5603 55.4286 32.3401 55.4286 27C55.4286 23.4196 56.8885 19.9858 59.4872 17.4541C62.086 14.9223 65.6106 13.5 69.2857 13.5C72.9609 13.5 76.4855 14.9223 79.0842 17.4541C81.6829 19.9858 83.1429 23.4196 83.1429 27H97C97 23.4537 96.2828 19.9421 94.8895 16.6659C93.4962 13.3896 91.4541 10.4128 88.8797 7.9056Z" fill="url(#commonGradient)"/>
</svg>

